<svg id="visual" viewBox="0 0 900 600" width="900" height="600" xmlns="http://www.w3.org/2000/svg" xmlns:xlink="http://www.w3.org/1999/xlink" version="1.1"><rect x="0" y="0" width="900" height="600" fill="#002233"></rect><path d="M0 330L15 343.7C30 357.3 60 384.7 90 390.2C120 395.7 150 379.3 180 358.3C210 337.3 240 311.7 270 288.5C300 265.3 330 244.7 360 248.8C390 253 420 282 450 282.7C480 283.3 510 255.7 540 269.5C570 283.3 600 338.7 630 372C660 405.3 690 416.7 720 390.8C750 365 780 302 810 279.8C840 257.7 870 276.3 885 285.7L900 295L900 601L885 601C870 601 840 601 810 601C780 601 750 601 720 601C690 601 660 601 630 601C600 601 570 601 540 601C510 601 480 601 450 601C420 601 390 601 360 601C330 601 300 601 270 601C240 601 210 601 180 601C150 601 120 601 90 601C60 601 30 601 15 601L0 601Z" fill="#0066FF" stroke-linecap="round" stroke-linejoin="miter"></path></svg>